HIERARCHY
ROOT joint_0
{
	OFFSET 0.000000 0.000000 0.000000
	CHANNELS 6 Xposition Yposition Zposition Zrotation Yrotation Xrotation 
	JOINT joint_1
	{
		OFFSET 13.542969 -4.074463 123.986084
		CHANNELS 3 Zrotation Yrotation Xrotation
		JOINT joint_2
		{
			OFFSET -0.108154 -3.018066 113.860962
			CHANNELS 3 Zrotation Yrotation Xrotation
			JOINT joint_3
			{
				OFFSET -1.139648 -3.876465 113.702026
				CHANNELS 3 Zrotation Yrotation Xrotation
				JOINT joint_4
				{
					OFFSET 13.593506 -8.582153 160.876953
					CHANNELS 3 Zrotation Yrotation Xrotation
					JOINT joint_5
					{
						OFFSET 26.480957 -11.565674 94.427979
						CHANNELS 3 Zrotation Yrotation Xrotation
						End Site
						{
							OFFSET 0.000000 0.000000 0.000000
						}
					}
				}
				JOINT joint_6
				{
					OFFSET 3.003662 -39.658691 88.713989
					CHANNELS 3 Zrotation Yrotation Xrotation
					JOINT joint_7
					{
						OFFSET -25.253906 -162.506348 -28.477051
						CHANNELS 3 Zrotation Yrotation Xrotation
						JOINT joint_8
						{
							OFFSET 23.083252 -8.502686 -295.281982
							CHANNELS 3 Zrotation Yrotation Xrotation
							JOINT joint_9
							{
								OFFSET 20.205566 -32.167908 -263.458008
								CHANNELS 3 Zrotation Yrotation Xrotation
								End Site
								{
									OFFSET 0.000000 0.000000 0.000000
								}
							}
						}
					}
				}
				JOINT joint_10
				{
					OFFSET 12.313232 30.012939 91.642944
					CHANNELS 3 Zrotation Yrotation Xrotation
					JOINT joint_11
					{
						OFFSET 31.960205 162.667969 -19.398926
						CHANNELS 3 Zrotation Yrotation Xrotation
						JOINT joint_12
						{
							OFFSET 51.325195 40.249023 -289.038086
							CHANNELS 3 Zrotation Yrotation Xrotation
							JOINT joint_13
							{
								OFFSET 70.170898 60.433594 -249.556030
								CHANNELS 3 Zrotation Yrotation Xrotation
								End Site
								{
									OFFSET 0.000000 0.000000 0.000000
								}
							}
						}
					}
				}
			}
		}
	}
	JOINT joint_14
	{
		OFFSET -15.093262 -91.803833 -113.326904
		CHANNELS 3 Zrotation Yrotation Xrotation
		JOINT joint_15
		{
			OFFSET 2.288818 -12.306763 -494.206055
			CHANNELS 3 Zrotation Yrotation Xrotation
			JOINT joint_16
			{
				OFFSET -54.691650 0.383423 -424.447006
				CHANNELS 3 Zrotation Yrotation Xrotation
				JOINT joint_17
				{
					OFFSET 202.154297 -21.791382 -80.181999
					CHANNELS 3 Zrotation Yrotation Xrotation
					End Site
					{
						OFFSET 0.000000 0.000000 0.000000
					}
				}
			}
		}
	}
	JOINT joint_18
	{
		OFFSET 10.704102 91.957275 -113.713013
		CHANNELS 3 Zrotation Yrotation Xrotation
		JOINT joint_19
		{
			OFFSET 0.427490 1.374878 -494.359924
			CHANNELS 3 Zrotation Yrotation Xrotation
			JOINT joint_20
			{
				OFFSET -53.071777 2.769531 -424.643028
				CHANNELS 3 Zrotation Yrotation Xrotation
				JOINT joint_21
				{
					OFFSET 200.264648 -28.253052 -82.862999
					CHANNELS 3 Zrotation Yrotation Xrotation
					End Site
					{
						OFFSET 0.000000 0.000000 0.000000
					}
				}
			}
		}
	}
}
MOTION
Frames: 15
Frame Time: 0.016667
-3201.549561 1343.908203 1146.017944 24.118240 2.631227 3.018634 1.066573 -0.317716 -3.884728 1.205819 -0.095701 0.837008 1.199627 -0.163677 -0.608450 -0.333160 -0.442542 0.973242 0.000000 0.000000 0.000000 7.380874 -1.624733 3.602089 -1.671911 1.813240 -6.125021 -0.935026 3.933425 4.171319 0.000000 0.000000 0.000000 -2.262575 0.794364 1.532104 1.259587 1.058415 2.547162 2.572758 3.653839 5.876510 0.000000 0.000000 0.000000 -2.597669 -11.154214 -0.911054 -2.299399 22.803961 3.095692 1.443315 -4.085285 0.075513 0.000000 0.000000 0.000000 -3.574839 -0.610353 0.392846 -3.563727 2.176931 -2.264099 -3.701628 2.211684 -1.201778 0.000000 0.000000 0.000000 
-3191.420410 1342.943359 1145.942993 24.523101 2.428797 3.037515 0.986346 -0.405946 -4.004246 1.118112 -0.099347 0.909789 1.111420 -0.170630 -0.610753 -0.334300 -0.321715 1.038357 0.000000 0.000000 0.000000 6.870894 -1.797607 3.534088 -1.688472 1.564345 -6.507041 -0.875407 3.727964 4.432534 0.000000 0.000000 0.000000 -2.309502 0.995480 1.487686 1.395594 1.151249 2.960708 2.905360 4.237975 6.647729 0.000000 0.000000 0.000000 -1.846981 -10.512898 -0.778524 -1.586843 20.039234 3.496992 1.740193 -3.815060 0.227668 0.000000 0.000000 0.000000 -3.717739 -1.188919 0.572842 -3.697689 4.761751 -2.295173 -3.800451 1.386744 -1.356327 0.000000 0.000000 0.000000 
-3181.015625 1342.026611 1145.317993 24.856427 2.143915 2.914474 0.944536 -0.544407 -3.856199 1.060215 -0.079226 0.900038 1.052108 -0.191871 -0.578906 -0.330630 -0.126367 1.120993 0.000000 0.000000 0.000000 6.319376 -1.905427 3.336906 -1.740455 1.336864 -6.853964 -0.850967 3.640234 4.698262 0.000000 0.000000 0.000000 -2.308569 1.203286 1.511010 1.473861 1.288401 3.228491 3.146983 4.627562 7.274647 0.000000 0.000000 0.000000 -1.905970 -9.693756 -0.267059 -1.760242 18.634312 3.295575 1.207243 -3.693121 0.041670 0.000000 0.000000 0.000000 -3.888567 -2.426960 0.996972 -3.842591 8.983556 -2.619505 -3.797837 0.160017 -1.522767 0.000000 0.000000 0.000000 
-3170.379395 1341.059692 1144.260010 25.112802 1.793877 2.623513 0.938736 -0.704544 -3.397799 1.024993 -0.048659 0.773679 1.014670 -0.224754 -0.522713 -0.329158 0.100576 1.222319 0.000000 0.000000 0.000000 5.747693 -1.978843 3.070249 -1.814799 1.120176 -7.169500 -0.849623 3.633948 4.948158 0.000000 0.000000 0.000000 -2.260361 1.407353 1.582143 1.514381 1.446470 3.401849 3.315267 4.877830 7.745279 0.000000 0.000000 0.000000 -2.386729 -8.623601 0.558369 -2.409472 17.749220 2.789094 0.204625 -3.700164 -0.340711 0.000000 0.000000 0.000000 -4.167381 -4.120466 1.682188 -4.076117 14.276605 -3.219200 -3.665360 -0.913109 -1.611357 0.000000 0.000000 0.000000 
-3159.871338 1339.821899 1142.656006 25.323779 1.416985 2.325663 0.945416 -0.801245 -2.978192 0.993682 -0.015012 0.689645 0.981361 -0.244880 -0.449860 -0.358307 0.224760 1.378184 0.000000 0.000000 0.000000 5.285353 -2.043275 2.850994 -1.849575 0.939417 -7.441419 -0.819028 3.525187 5.066380 0.000000 0.000000 0.000000 -2.120143 1.566591 1.646730 1.536765 1.544952 3.623511 3.380213 4.980040 7.901946 0.000000 0.000000 0.000000 -2.635784 -7.423224 1.298049 -2.825668 17.003737 2.472736 -0.462310 -3.960905 -0.622604 0.000000 0.000000 0.000000 -4.604910 -6.220154 2.469207 -4.458530 20.114010 -4.171371 -3.473990 -1.185015 -1.560326 0.000000 0.000000 0.000000 
-3149.710693 1337.897095 1140.321045 25.571261 1.034683 2.017765 0.947353 -0.819323 -2.613880 0.945062 0.041602 0.647355 0.929377 -0.239044 -0.354351 -0.435795 0.173922 1.618420 0.000000 0.000000 0.000000 4.990694 -2.085952 2.692334 -1.807390 0.813551 -7.627494 -0.729882 3.200084 5.019743 0.000000 0.000000 0.000000 -1.845938 1.630508 1.713778 1.547116 1.524283 3.953372 3.310860 4.905906 7.614115 0.000000 0.000000 0.000000 -2.348171 -6.090955 1.903084 -2.692901 16.271384 2.516241 -0.455376 -4.546445 -0.681517 0.000000 0.000000 0.000000 -5.313425 -8.993070 3.533567 -5.117074 26.726639 -5.838686 -3.410456 0.125257 -1.328075 0.000000 0.000000 0.000000 
-3139.680420 1335.702148 1137.439941 25.726533 0.602104 1.562169 0.976203 -0.724996 -1.998678 0.916125 0.072649 0.500799 0.897023 -0.213564 -0.242325 -0.544762 0.019741 1.915973 0.000000 0.000000 0.000000 4.801397 -2.116308 2.584479 -1.723525 0.725603 -7.776638 -0.612450 2.769591 4.838253 0.000000 0.000000 0.000000 -1.480085 1.645258 1.762936 1.541796 1.437541 4.340312 3.139993 4.697258 7.005266 0.000000 0.000000 0.000000 -1.836654 -4.605376 2.644543 -2.295953 15.645485 2.668110 -0.137131 -5.275020 -0.637613 0.000000 0.000000 0.000000 -6.125430 -12.081035 4.921124 -5.949054 33.589915 -7.971979 -3.439547 2.969081 -0.904546 0.000000 0.000000 0.000000 
-3129.483154 1334.272949 1134.459961 25.636763 0.119438 1.060123 1.043972 -0.548064 -1.262549 0.933661 0.048278 0.317670 0.913915 -0.173785 -0.139805 -0.659371 -0.154820 2.218297 0.000000 0.000000 0.000000 4.663236 -2.190033 2.608017 -1.644207 0.645882 -8.007393 -0.503819 2.385559 4.506120 0.000000 0.000000 0.000000 -1.095867 1.717442 1.702690 1.525070 1.377204 4.752563 2.934056 4.447389 6.306881 0.000000 0.000000 0.000000 -1.387001 -3.154064 3.426357 -1.875868 15.179168 2.828468 0.213450 -5.965954 -0.579165 0.000000 0.000000 0.000000 -6.629362 -14.774536 6.066904 -6.603040 39.595920 -9.582133 -3.200750 5.842393 -0.387309 0.000000 0.000000 0.000000 
-3118.998535 1334.106567 1131.332031 25.359082 -0.385052 0.615057 1.126920 -0.413688 -0.579983 0.966674 0.021096 0.203767 0.946926 -0.111014 -0.054129 -0.770995 -0.335212 2.502065 0.000000 0.000000 0.000000 4.589962 -2.304767 2.827150 -1.569962 0.607346 -8.425937 -0.392372 1.992850 4.032200 0.000000 0.000000 0.000000 -0.681179 1.896879 1.437571 1.498224 1.349645 5.282973 2.674937 4.133612 5.480999 0.000000 0.000000 0.000000 -1.137960 -1.799556 4.078440 -1.576227 14.887669 3.083094 0.464576 -6.674583 -0.562169 0.000000 0.000000 0.000000 -6.698055 -17.045562 6.593906 -6.951416 44.983453 -10.203929 -2.350594 7.629695 0.169848 0.000000 0.000000 0.000000 
-3108.348877 1334.705688 1128.104980 24.959490 -0.896351 0.209169 1.216391 -0.298875 0.076589 1.003500 -0.001472 0.122125 0.983961 -0.034585 0.022570 -0.886667 -0.535642 2.783269 0.000000 0.000000 0.000000 4.559405 -2.460371 3.168023 -1.505248 0.574819 -8.916532 -0.295620 1.641255 3.412289 0.000000 0.000000 0.000000 -0.246497 2.138723 1.071393 1.452048 1.355045 5.831143 2.371900 3.774198 4.572397 0.000000 0.000000 0.000000 -0.979403 -0.511094 4.628726 -1.298378 14.774773 3.406371 0.729428 -7.403415 -0.544164 0.000000 0.000000 0.000000 -6.487722 -19.137581 6.734239 -7.123686 49.918461 -10.247964 -1.013813 8.799235 0.781325 0.000000 0.000000 0.000000 
-3097.604980 1335.614380 1125.369995 24.443961 -1.366620 -0.126110 1.309691 -0.159699 0.666718 1.052090 -0.035420 0.024684 1.034146 0.020992 0.094770 -0.999676 -0.712100 3.060720 0.000000 0.000000 0.000000 4.462993 -2.713601 3.494769 -1.497991 0.414227 -9.251709 -0.290257 1.628598 2.613449 0.000000 0.000000 0.000000 0.104882 2.404230 0.824113 1.390586 1.482305 6.050496 2.144999 3.498420 3.945238 0.000000 0.000000 0.000000 -0.826045 0.594833 5.110479 -0.992550 14.917928 3.602122 1.047329 -7.993642 -0.493096 0.000000 0.000000 0.000000 -6.121259 -20.992835 6.697867 -7.150802 53.694513 -10.039884 0.464289 9.412148 1.342290 0.000000 0.000000 0.000000 
-3086.852539 1336.614380 1123.292969 23.842644 -1.741835 -0.341065 1.408479 -0.046658 1.096289 1.104343 -0.055174 -0.076985 1.083397 0.042475 0.163347 -1.117873 -0.863197 3.361595 0.000000 0.000000 0.000000 4.219237 -3.135746 3.805559 -1.595617 0.031632 -9.346727 -0.443336 2.175080 1.491401 0.000000 0.000000 0.000000 0.308267 2.698294 0.788370 1.316408 1.793214 5.791565 2.041877 3.310411 3.756513 0.000000 0.000000 0.000000 -0.638094 1.360090 5.517357 -0.686314 15.488375 3.560229 1.399900 -8.422172 -0.413070 0.000000 0.000000 0.000000 -5.543808 -22.697138 6.491874 -6.910198 56.264866 -9.521273 2.218320 9.105857 1.862286 0.000000 0.000000 0.000000 
-3076.007080 1337.923828 1121.708984 23.190132 -2.036059 -0.451238 1.499916 0.009903 1.388823 1.146637 -0.047210 -0.157463 1.116358 0.047994 0.225851 -1.232760 -0.989089 3.659138 0.000000 0.000000 0.000000 3.903273 -3.655496 4.126204 -1.770675 -0.474657 -9.285965 -0.705169 2.998862 0.150153 0.000000 0.000000 0.000000 0.424436 3.008908 0.857537 1.237092 2.217546 5.204788 2.025537 3.199789 3.844542 0.000000 0.000000 0.000000 -0.439625 1.901007 5.816383 -0.406518 16.317018 3.412352 1.756279 -8.737421 -0.320412 0.000000 0.000000 0.000000 -4.847324 -24.289656 6.062340 -6.479307 57.883759 -8.722776 3.949153 8.038277 2.283072 0.000000 0.000000 0.000000 
-3064.881592 1339.747314 1120.718018 22.488450 -2.297353 -0.509806 1.558429 0.072912 1.648074 1.189428 -0.044530 -0.224759 1.154667 0.056968 0.279578 -1.314926 -1.052098 3.881475 0.000000 0.000000 0.000000 3.635044 -4.114764 4.348315 -1.931732 -0.956167 -9.090085 -0.952728 3.682505 -1.045907 0.000000 0.000000 0.000000 0.521512 3.269300 0.956443 1.172318 2.647772 4.389766 2.096691 3.269041 4.091545 0.000000 0.000000 0.000000 -0.232608 2.496448 5.986668 -0.097956 16.979255 3.329551 2.136575 -8.908361 -0.203659 0.000000 0.000000 0.000000 -4.339387 -25.655840 5.544348 -6.125701 58.376912 -8.040776 4.589060 7.020445 2.375489 0.000000 0.000000 0.000000 
-3053.381348 1342.357300 1120.494019 21.734524 -2.564542 -0.530573 1.555286 0.198977 1.927714 1.233730 -0.070221 -0.289735 1.207778 0.084147 0.327831 -1.343936 -1.015389 3.986834 0.000000 0.000000 0.000000 3.474407 -4.482597 4.396795 -2.051506 -1.395738 -8.712849 -1.161678 4.216556 -2.029064 0.000000 0.000000 0.000000 0.627303 3.443975 1.070884 1.130899 3.061104 3.257575 2.309652 3.659279 4.579976 0.000000 0.000000 0.000000 -0.023331 3.258752 5.983293 0.253614 17.344975 3.403469 2.552161 -8.898258 -0.054151 0.000000 0.000000 0.000000 -4.216907 -26.689269 4.988364 -6.014163 57.478404 -7.630607 3.503937 6.475662 1.978513 0.000000 0.000000 0.000000 
